<svg xmlns="http://www.w3.org/2000/svg" width="1600" height="1000" viewBox="0 0 1600 1000">
  <defs>
    <linearGradient id="green-ribbon" x1="0" y1="0" x2="1" y2="1">
      <stop offset="0" stop-color="#f0f6ed" stop-opacity="0.68"/>
      <stop offset="0.5" stop-color="#c6dbc4" stop-opacity="0.32"/>
      <stop offset="1" stop-color="#9fbd9f" stop-opacity="0.18"/>
    </linearGradient>
    <linearGradient id="green-field" x1="0" y1="0" x2="0" y2="1">
      <stop offset="0" stop-color="#bdd3bb" stop-opacity="0.06"/>
      <stop offset="1" stop-color="#91b192" stop-opacity="0.3"/>
    </linearGradient>
    <filter id="green-blur" x="-30%" y="-40%" width="160%" height="180%">
      <feGaussianBlur stdDeviation="52"/>
    </filter>
    <filter id="green-glow" x="-100%" y="-100%" width="300%" height="300%">
      <feGaussianBlur stdDeviation="12"/>
    </filter>
  </defs>

  <g filter="url(#green-blur)" opacity="0.64">
    <ellipse cx="90" cy="260" rx="360" ry="170" fill="#eef5eb"/>
    <ellipse cx="720" cy="115" rx="470" ry="115" fill="#e7f0e3"/>
    <ellipse cx="1390" cy="360" rx="390" ry="210" fill="#bdd2bb" opacity="0.7"/>
    <ellipse cx="770" cy="825" rx="620" ry="190" fill="#afc9ae" opacity="0.52"/>
  </g>

  <path d="M-130 285C86 102 294 66 505 172c248 124 432 140 651 17 192-108 367-95 574 45v252c-219-134-393-143-583-42-246 132-467 125-704-10C235 316 72 327-130 491Z" fill="url(#green-ribbon)"/>
  <path d="M-120 720c212-146 417-162 614-48 242 140 461 153 694 37 180-89 352-83 542 20v271H-120Z" fill="url(#green-field)"/>

  <g fill="none" stroke="#7fa181" stroke-linecap="round" opacity="0.17">
    <path d="M-95 560c181-142 365-171 552-86 260 119 484 124 723 14 190-87 366-81 536 20" stroke-width="2.2"/>
    <path d="M-95 590c181-142 365-171 552-86 260 119 484 124 723 14 190-87 366-81 536 20" stroke-width="1.85"/>
    <path d="M-95 622c181-142 365-171 552-86 260 119 484 124 723 14 190-87 366-81 536 20" stroke-width="1.55"/>
    <path d="M-95 656c181-142 365-171 552-86 260 119 484 124 723 14 190-87 366-81 536 20" stroke-width="1.3"/>
    <path d="M76 382c148-105 295-123 443-54 205 95 381 100 570 11 149-70 288-67 421 7" stroke-width="1.35"/>
    <path d="M122 345c133-94 265-110 398-49 185 86 344 90 514 10 134-63 259-60 379 7" stroke-width="1.05"/>
  </g>

  <g fill="#6f9574" opacity="0.18">
    <circle cx="125" cy="650" r="4"/>
    <circle cx="332" cy="410" r="3"/>
    <circle cx="520" cy="782" r="5"/>
    <circle cx="766" cy="318" r="4"/>
    <circle cx="974" cy="735" r="3"/>
    <circle cx="1192" cy="464" r="5"/>
    <circle cx="1410" cy="780" r="4"/>
    <circle cx="1530" cy="342" r="3"/>
  </g>
  <g fill="#f4f8f1" opacity="0.62" filter="url(#green-glow)">
    <circle cx="125" cy="650" r="9"/>
    <circle cx="520" cy="782" r="10"/>
    <circle cx="1192" cy="464" r="9"/>
    <circle cx="1410" cy="780" r="8"/>
  </g>
</svg>
